<svg width="30" height="30" viewBox="0 0 30 30" fill="none" xmlns="http://www.w3.org/2000/svg">
<path d="M25.5251 12.7251L15.8876 2.87512C15.7714 2.75796 15.6332 2.66497 15.4809 2.6015C15.3285 2.53804 15.1652 2.50537 15.0001 2.50537C14.8351 2.50537 14.6717 2.53804 14.5194 2.6015C14.3671 2.66497 14.2288 2.75796 14.1126 2.87512L4.47514 12.7376C4.24194 12.9727 4.05776 13.2518 3.9333 13.5586C3.80885 13.8655 3.74659 14.194 3.75014 14.5251V25.0001C3.74918 25.64 3.99361 26.2559 4.43311 26.721C4.87261 27.1861 5.47372 27.4649 6.11264 27.5001H23.8876C24.5266 27.4649 25.1277 27.1861 25.5672 26.721C26.0067 26.2559 26.2511 25.64 26.2501 25.0001V14.5251C26.2511 13.8538 25.9912 13.2083 25.5251 12.7251ZM12.5001 25.0001V17.5001H17.5001V25.0001H12.5001ZM23.7501 25.0001H20.0001V16.2501C20.0001 15.9186 19.8684 15.6007 19.634 15.3662C19.3996 15.1318 19.0817 15.0001 18.7501 15.0001H11.2501C10.9186 15.0001 10.6007 15.1318 10.3663 15.3662C10.1318 15.6007 10.0001 15.9186 10.0001 16.2501V25.0001H6.25014V14.4751L15.0001 5.53762L23.7501 14.5251V25.0001Z" fill="#290886"></path>
</svg>
