<svg width="26" height="26" viewBox="0 0 26 26" fill="none" xmlns="http://www.w3.org/2000/svg">
<path d="M4.25 9.25C4.91304 9.25 5.54893 8.98661 6.01777 8.51777C6.48661 8.04893 6.75 7.41304 6.75 6.75C6.75 6.08696 6.48661 5.45107 6.01777 4.98223C5.54893 4.51339 4.91304 4.25 4.25 4.25C3.58696 4.25 2.95107 4.51339 2.48223 4.98223C2.01339 5.45107 1.75 6.08696 1.75 6.75C1.75 7.41304 2.01339 8.04893 2.48223 8.51777C2.95107 8.98661 3.58696 9.25 4.25 9.25ZM4.25 9.25V10.5M4.25 19.25V18M4.25 19.25C4.91304 19.25 5.54893 19.5134 6.01777 19.9822C6.48661 20.4511 6.75 21.087 6.75 21.75M4.25 19.25C3.58696 19.25 2.95107 19.5134 2.48223 19.9822C2.01339 20.4511 1.75 21.087 1.75 21.75C1.75 22.413 2.01339 23.0489 2.48223 23.5178C2.95107 23.9866 3.58696 24.25 4.25 24.25C4.91304 24.25 5.54893 23.9866 6.01777 23.5178C6.48661 23.0489 6.75 22.413 6.75 21.75M6.75 21.75H8M19.25 19.25C19.7445 19.25 20.2278 19.3966 20.6389 19.6713C21.05 19.946 21.3705 20.3365 21.5597 20.7933C21.7489 21.2501 21.7984 21.7528 21.702 22.2377C21.6055 22.7227 21.3674 23.1681 21.0178 23.5178C20.6681 23.8674 20.2227 24.1055 19.7377 24.202C19.2528 24.2984 18.7501 24.2489 18.2933 24.0597C17.8365 23.8705 17.446 23.55 17.1713 23.1389C16.8966 22.7278 16.75 22.2445 16.75 21.75M19.25 19.25C18.587 19.25 17.9511 19.5134 17.4822 19.9822C17.0134 20.4511 16.75 21.087 16.75 21.75M19.25 19.25V18M16.75 21.75H15.5" stroke="#290886" stroke-width="2" stroke-linecap="round" stroke-linejoin="round"></path>
<path d="M4.25 15.5C4.94036 15.5 5.5 14.9404 5.5 14.25C5.5 13.5596 4.94036 13 4.25 13C3.55964 13 3 13.5596 3 14.25C3 14.9404 3.55964 15.5 4.25 15.5Z" fill="#290886"></path>
<path d="M11.75 23C12.4404 23 13 22.4404 13 21.75C13 21.0596 12.4404 20.5 11.75 20.5C11.0596 20.5 10.5 21.0596 10.5 21.75C10.5 22.4404 11.0596 23 11.75 23Z" fill="#290886"></path>
<path d="M24.25 6.75C24.25 10.0138 19.25 14.25 19.25 14.25C19.25 14.25 14.25 10.0138 14.25 6.75C14.25 3.48625 16.4875 1.75 19.25 1.75C22.0125 1.75 24.25 3.48625 24.25 6.75Z" stroke="#290886" stroke-width="2" stroke-linecap="round" stroke-linejoin="round"></path>
<path d="M19.25 8C19.9404 8 20.5 7.44036 20.5 6.75C20.5 6.05964 19.9404 5.5 19.25 5.5C18.5596 5.5 18 6.05964 18 6.75C18 7.44036 18.5596 8 19.25 8Z" fill="#290886"></path>
</svg>
