<svg width="30" height="30" viewBox="0 0 30 30" fill="none" xmlns="http://www.w3.org/2000/svg">
<path fill-rule="evenodd" clip-rule="evenodd" d="M11.25 1.875C10.3798 1.875 9.54516 2.2207 8.92981 2.83606C8.31445 3.45141 7.96875 4.28601 7.96875 5.15625V7.5H5.625C4.63044 7.5 3.67661 7.89509 2.97335 8.59835C2.27009 9.30161 1.875 10.2554 1.875 11.25V24.375C1.875 25.3696 2.27009 26.3234 2.97335 27.0266C3.67661 27.7299 4.63044 28.125 5.625 28.125H24.375C25.3696 28.125 26.3234 27.7299 27.0266 27.0266C27.7299 26.3234 28.125 25.3696 28.125 24.375V11.25C28.125 10.2554 27.7299 9.30161 27.0266 8.59835C26.3234 7.89509 25.3696 7.5 24.375 7.5H22.0312V5.15625C22.0312 4.28601 21.6855 3.45141 21.0702 2.83606C20.4548 2.2207 19.6202 1.875 18.75 1.875H11.25ZM19.2188 7.5V5.15625C19.2188 5.03193 19.1694 4.9127 19.0815 4.82479C18.9935 4.73689 18.8743 4.6875 18.75 4.6875H11.25C11.1257 4.6875 11.0065 4.73689 10.9185 4.82479C10.8306 4.9127 10.7812 5.03193 10.7812 5.15625V7.5H19.2188ZM5.625 10.3125H24.375C24.6236 10.3125 24.8621 10.4113 25.0379 10.5871C25.2137 10.7629 25.3125 11.0014 25.3125 11.25V13.125H4.6875V11.25C4.6875 11.0014 4.78627 10.7629 4.96209 10.5871C5.1379 10.4113 5.37636 10.3125 5.625 10.3125ZM4.6875 15.9375V24.375C4.6875 24.6236 4.78627 24.8621 4.96209 25.0379C5.1379 25.2137 5.37636 25.3125 5.625 25.3125H24.375C24.6236 25.3125 24.8621 25.2137 25.0379 25.0379C25.2137 24.8621 25.3125 24.6236 25.3125 24.375V15.9375H16.875V18.75H13.125V15.9375H4.6875Z" fill="#290886"></path>
</svg>
